<svg xmlns="http://www.w3.org/2000/svg" viewBox="0 0 48.731 48"><path d="M48.731 24.365A24.518 24.518 0 0 1 30.457 48v-6.384c0-2-.487-4.776-2.534-6.384 6.53-.975 11.647-4.824 11.647-10.867a10.726 10.726 0 0 0-2.826-7.017c.536-2.29.828-5.117-.195-7.212a17.431 17.431 0 0 0-7.066 2.729 21.28 21.28 0 0 0-5.117-.682 21.691 21.691 0 0 0-5.165.682 17.214 17.214 0 0 0-7.017-2.729c-1.023 2.1-.78 4.922-.244 7.212a10.669 10.669 0 0 0-2.778 7.017c0 6.043 5.117 9.892 11.647 10.867a6.055 6.055 0 0 0-1.949 2.778c-5.117.1-9.21-3.947-9.259-3.947a.678.678 0 0 0-.78-.1.658.658 0 0 0-.341.78c.1.244 2.144 6.043 9.795 8.382V48a24.384 24.384 0 1 1 30.456-23.635z" fill="#404040"/></svg>