<svg xmlns="http://www.w3.org/2000/svg" viewBox="0 0 48 48"><path d="M48 24A24 24 0 1 1 24 0a23.947 23.947 0 0 1 24 24zm-6-8.784a14.856 14.856 0 0 1-3.936 1.056 6.315 6.315 0 0 0 2.928-3.792 13.684 13.684 0 0 1-4.272 1.68A6.59 6.59 0 0 0 31.776 12a6.771 6.771 0 0 0-6.768 6.816 8.318 8.318 0 0 0 .144 1.536A19.263 19.263 0 0 1 11.04 13.2a7.674 7.674 0 0 0-.864 3.456 6.684 6.684 0 0 0 2.976 5.664 6.163 6.163 0 0 1-3.072-.864v.1a6.892 6.892 0 0 0 5.472 6.72 7.2 7.2 0 0 1-1.776.192 10.951 10.951 0 0 1-1.3-.1 6.674 6.674 0 0 0 6.336 4.608 13.606 13.606 0 0 1-8.448 3.12c-.528 0-1.1-.048-1.584-.1a19.277 19.277 0 0 0 10.42 2.98c12.576 0 19.392-10.368 19.392-19.392v-.864A13.923 13.923 0 0 0 42 15.216z" fill="#404040"/></svg>